<mxfile host="app.diagrams.net" agent="Mozilla/5.0 (X11; Ubuntu; Linux x86_64; rv:132.0) Gecko/20100101 Firefox/132.0" version="24.8.6">
  <diagram name="第 1 页" id="2NHLz40h-LM8DVHaiUKU">
    <mxGraphModel dx="9656" dy="4496" grid="0" gridSize="10" guides="1" tooltips="1" connect="1" arrows="1" fold="1" page="0" pageScale="1" pageWidth="827" pageHeight="1169" math="0" shadow="0">
      <root>
        <mxCell id="0" />
        <mxCell id="1" parent="0" />
        <mxCell id="pp-BciHuPh1qQ60pS0a8-30" value="" style="rounded=0;whiteSpace=wrap;html=1;fillColor=#fff2cc;strokeColor=#d6b656;strokeWidth=2;" parent="1" vertex="1">
          <mxGeometry x="-3132" y="-753.5" width="2340" height="1040" as="geometry" />
        </mxCell>
        <mxCell id="pp-BciHuPh1qQ60pS0a8-2" value="" style="rounded=0;whiteSpace=wrap;html=1;fillColor=#ffe6cc;strokeColor=#d79b00;strokeWidth=2;" parent="1" vertex="1">
          <mxGeometry x="-3202" y="-1684.5" width="1700" height="851" as="geometry" />
        </mxCell>
        <mxCell id="FKYkS-hTosPglD_a-o6q-47" value="" style="rounded=0;whiteSpace=wrap;html=1;align=center;verticalAlign=middle;fontFamily=Helvetica;fontSize=12;fontColor=default;fillColor=none;gradientColor=none;" parent="1" vertex="1">
          <mxGeometry x="-2802" y="2018" width="340" height="110" as="geometry" />
        </mxCell>
        <mxCell id="FKYkS-hTosPglD_a-o6q-32" value="" style="rounded=0;whiteSpace=wrap;html=1;" parent="1" vertex="1">
          <mxGeometry x="-2772" y="1948" width="316.25" height="180" as="geometry" />
        </mxCell>
        <mxCell id="FKYkS-hTosPglD_a-o6q-9" value="" style="rounded=0;whiteSpace=wrap;html=1;" parent="1" vertex="1">
          <mxGeometry x="-2842" y="1858" width="460" height="910" as="geometry" />
        </mxCell>
        <mxCell id="FKYkS-hTosPglD_a-o6q-12" value="" style="rounded=0;whiteSpace=wrap;html=1;" parent="1" vertex="1">
          <mxGeometry x="-2832" y="2858" width="430" height="340" as="geometry" />
        </mxCell>
        <mxCell id="FKYkS-hTosPglD_a-o6q-4" value="" style="edgeStyle=orthogonalEdgeStyle;rounded=0;orthogonalLoop=1;jettySize=auto;html=1;exitX=0.5;exitY=1;exitDx=0;exitDy=0;" parent="1" source="FKYkS-hTosPglD_a-o6q-24" edge="1">
          <mxGeometry relative="1" as="geometry">
            <mxPoint x="-2607" y="2258" as="sourcePoint" />
            <mxPoint x="-2607" y="2408" as="targetPoint" />
          </mxGeometry>
        </mxCell>
        <mxCell id="FKYkS-hTosPglD_a-o6q-5" style="edgeStyle=orthogonalEdgeStyle;rounded=0;orthogonalLoop=1;jettySize=auto;html=1;" parent="1" edge="1">
          <mxGeometry relative="1" as="geometry">
            <mxPoint x="-2602" y="2648" as="targetPoint" />
            <mxPoint x="-2512" y="2148" as="sourcePoint" />
            <Array as="points">
              <mxPoint x="-2512" y="2198" />
              <mxPoint x="-2452" y="2198" />
              <mxPoint x="-2452" y="2618" />
              <mxPoint x="-2602" y="2618" />
            </Array>
          </mxGeometry>
        </mxCell>
        <mxCell id="FKYkS-hTosPglD_a-o6q-1" value="" style="rounded=0;whiteSpace=wrap;html=1;" parent="1" vertex="1">
          <mxGeometry x="-2702" y="2148" width="190" height="100" as="geometry" />
        </mxCell>
        <mxCell id="FKYkS-hTosPglD_a-o6q-2" value="&lt;div&gt;01_find_circuit.py&lt;/div&gt;：根据config.json构建DetailedCircuit类，权重用log distribution随机生成，重复total_sample（32）次模拟，输入为位置对应的浓度梯度" style="text;html=1;align=center;verticalAlign=middle;whiteSpace=wrap;rounded=0;" parent="1" vertex="1">
          <mxGeometry x="-2678.25" y="2183" width="142.5" height="30" as="geometry" />
        </mxCell>
        <mxCell id="FKYkS-hTosPglD_a-o6q-3" value="&lt;div&gt;02_train_cnn.py:进行一次模拟，然后将模拟的电位信号结果与肌肉激活信号作为输入，训练神经元输出信号到肌肉激活信号的映射&lt;/div&gt;" style="rounded=0;whiteSpace=wrap;html=1;" parent="1" vertex="1">
          <mxGeometry x="-2702" y="2408" width="190" height="80" as="geometry" />
        </mxCell>
        <mxCell id="FKYkS-hTosPglD_a-o6q-7" value="neuronXcore.cpp" style="whiteSpace=wrap;html=1;aspect=fixed;" parent="1" vertex="1">
          <mxGeometry x="-2702" y="2948" width="190" height="190" as="geometry" />
        </mxCell>
        <mxCell id="FKYkS-hTosPglD_a-o6q-8" value="03_make_morph.py：读入absCircuit的内容，转换为detailedCircuit，进行一次模拟，并将circuit对象中的数据导出为.swc、.snp和.vtg文件" style="rounded=0;whiteSpace=wrap;html=1;" parent="1" vertex="1">
          <mxGeometry x="-2702" y="2648" width="190" height="90" as="geometry" />
        </mxCell>
        <mxCell id="FKYkS-hTosPglD_a-o6q-10" value="eworm/ghost_in_mesh_sim" style="text;html=1;align=center;verticalAlign=middle;whiteSpace=wrap;rounded=0;" parent="1" vertex="1">
          <mxGeometry x="-2982" y="1908" width="180" height="30" as="geometry" />
        </mxCell>
        <mxCell id="FKYkS-hTosPglD_a-o6q-11" value="" style="endArrow=classic;html=1;rounded=0;entryX=0.5;entryY=0;entryDx=0;entryDy=0;" parent="1" target="FKYkS-hTosPglD_a-o6q-7" edge="1">
          <mxGeometry width="50" height="50" relative="1" as="geometry">
            <mxPoint x="-2608" y="2738" as="sourcePoint" />
            <mxPoint x="-2607.91" y="2908" as="targetPoint" />
          </mxGeometry>
        </mxCell>
        <mxCell id="FKYkS-hTosPglD_a-o6q-13" value="neuronXcore/rtn" style="text;html=1;align=center;verticalAlign=middle;whiteSpace=wrap;rounded=0;" parent="1" vertex="1">
          <mxGeometry x="-2852" y="2828" width="100" height="30" as="geometry" />
        </mxCell>
        <mxCell id="FKYkS-hTosPglD_a-o6q-16" value="" style="endArrow=classic;html=1;rounded=0;entryX=0.881;entryY=-0.013;entryDx=0;entryDy=0;entryPerimeter=0;" parent="1" target="FKYkS-hTosPglD_a-o6q-1" edge="1">
          <mxGeometry width="50" height="50" relative="1" as="geometry">
            <mxPoint x="-2535" y="2108" as="sourcePoint" />
            <mxPoint x="-2577" y="2148" as="targetPoint" />
            <Array as="points" />
          </mxGeometry>
        </mxCell>
        <mxCell id="FKYkS-hTosPglD_a-o6q-17" value="" style="endArrow=classic;html=1;rounded=0;entryX=0.374;entryY=0.005;entryDx=0;entryDy=0;entryPerimeter=0;exitX=0.5;exitY=1;exitDx=0;exitDy=0;" parent="1" source="FKYkS-hTosPglD_a-o6q-18" target="FKYkS-hTosPglD_a-o6q-1" edge="1">
          <mxGeometry width="50" height="50" relative="1" as="geometry">
            <mxPoint x="-2675" y="2108" as="sourcePoint" />
            <mxPoint x="-2662.91" y="2148" as="targetPoint" />
            <Array as="points" />
          </mxGeometry>
        </mxCell>
        <mxCell id="FKYkS-hTosPglD_a-o6q-18" value="&lt;div&gt;worm_states_300_220&lt;/div&gt;&lt;div&gt;428-152601.json&lt;/div&gt;：物理仿真得到的线虫位置变化信息" style="text;html=1;align=center;verticalAlign=middle;whiteSpace=wrap;rounded=0;" parent="1" vertex="1">
          <mxGeometry x="-2662" y="2025.5" width="60" height="85" as="geometry" />
        </mxCell>
        <mxCell id="FKYkS-hTosPglD_a-o6q-21" value="data/config/config.json：包括神经元形态、电生理数据、连接矩阵等" style="text;html=1;align=center;verticalAlign=middle;whiteSpace=wrap;rounded=0;" parent="1" vertex="1">
          <mxGeometry x="-2572" y="2045.5" width="90" height="55" as="geometry" />
        </mxCell>
        <mxCell id="FKYkS-hTosPglD_a-o6q-25" value="" style="edgeStyle=orthogonalEdgeStyle;rounded=0;orthogonalLoop=1;jettySize=auto;html=1;exitX=0.5;exitY=1;exitDx=0;exitDy=0;" parent="1" source="FKYkS-hTosPglD_a-o6q-1" edge="1">
          <mxGeometry relative="1" as="geometry">
            <mxPoint x="-2607" y="2248" as="sourcePoint" />
            <mxPoint x="-2607" y="2328" as="targetPoint" />
          </mxGeometry>
        </mxCell>
        <mxCell id="FKYkS-hTosPglD_a-o6q-24" value="&lt;div&gt;sample_0_circuit.pkl：32次模拟中第0次的网络抽象结构&lt;/div&gt;&lt;div&gt;&lt;br&gt;&lt;/div&gt;" style="text;html=1;align=center;verticalAlign=middle;whiteSpace=wrap;rounded=0;" parent="1" vertex="1">
          <mxGeometry x="-2682" y="2338" width="150" height="30" as="geometry" />
        </mxCell>
        <mxCell id="FKYkS-hTosPglD_a-o6q-33" value="" style="endArrow=classic;html=1;rounded=0;exitX=0.14;exitY=0.835;exitDx=0;exitDy=0;exitPerimeter=0;" parent="1" source="FKYkS-hTosPglD_a-o6q-48" edge="1">
          <mxGeometry width="50" height="50" relative="1" as="geometry">
            <mxPoint x="-2832" y="2138" as="sourcePoint" />
            <mxPoint x="-2702" y="2454.663333333333" as="targetPoint" />
            <Array as="points">
              <mxPoint x="-2752" y="2455" />
            </Array>
          </mxGeometry>
        </mxCell>
        <mxCell id="FKYkS-hTosPglD_a-o6q-34" value="&lt;div&gt;worm_muscles_300_&lt;/div&gt;&lt;div&gt;220428152601.json：肌肉激活信号&lt;/div&gt;" style="text;html=1;align=center;verticalAlign=middle;whiteSpace=wrap;rounded=0;" parent="1" vertex="1">
          <mxGeometry x="-2802" y="2045.5" width="110" height="75" as="geometry" />
        </mxCell>
        <mxCell id="FKYkS-hTosPglD_a-o6q-39" value="sample_#{sample_index}_data.pkl：32次模拟的网络输入和输出信号" style="text;html=1;align=center;verticalAlign=middle;whiteSpace=wrap;rounded=0;" parent="1" vertex="1">
          <mxGeometry x="-2579.5" y="2268" width="105" height="40" as="geometry" />
        </mxCell>
        <mxCell id="FKYkS-hTosPglD_a-o6q-48" value="" style="rounded=0;whiteSpace=wrap;html=1;align=center;verticalAlign=middle;fontFamily=Helvetica;fontSize=12;fillColor=none;strokeColor=#6c8ebf;" parent="1" vertex="1">
          <mxGeometry x="-2802" y="2008" width="356.25" height="120" as="geometry" />
        </mxCell>
        <mxCell id="FKYkS-hTosPglD_a-o6q-49" value="eworm/ghost_in_mesh_sim/data" style="text;html=1;align=center;verticalAlign=middle;whiteSpace=wrap;rounded=0;fontFamily=Helvetica;fontSize=12;fontColor=default;" parent="1" vertex="1">
          <mxGeometry x="-2812" y="1954.5" width="150" height="71" as="geometry" />
        </mxCell>
        <mxCell id="FKYkS-hTosPglD_a-o6q-50" value="" style="endArrow=classic;html=1;rounded=0;fontFamily=Helvetica;fontSize=12;fontColor=default;exitX=0.5;exitY=1;exitDx=0;exitDy=0;entryX=0.75;entryY=0;entryDx=0;entryDy=0;" parent="1" source="FKYkS-hTosPglD_a-o6q-3" target="FKYkS-hTosPglD_a-o6q-51" edge="1">
          <mxGeometry width="50" height="50" relative="1" as="geometry">
            <mxPoint x="-2582" y="2458" as="sourcePoint" />
            <mxPoint x="-2702" y="2528" as="targetPoint" />
            <Array as="points">
              <mxPoint x="-2607" y="2508" />
              <mxPoint x="-2607" y="2528" />
            </Array>
          </mxGeometry>
        </mxCell>
        <mxCell id="FKYkS-hTosPglD_a-o6q-51" value="&lt;div&gt;video_offline_wout.pkl：reservoir的矩阵&lt;/div&gt;&lt;div&gt;&lt;article data-identifier-application__slash__x-doc-key=&quot;YvenvKpNwQaVqoyZ&quot; data-identifier-application__slash__x-cangjie-fragment=&quot;JTdCJTIya2xhc3MlMjIlM0ElMjJkb2N1bWVudCUyMiUyQyUyMmRhdGElMjIlM0ElN0IlN0QlMkMlMjJub2RlcyUyMiUzQSU1QiU3QiUyMmtsYXNzJTIyJTNBJTIyYmxvY2slMjIlMkMlMjJ0eXBlJTIyJTNBJTIycGFyYWdyYXBoJTIyJTJDJTIyZGF0YSUyMiUzQSU3QiUyMnV1aWQlMjIlM0ElMjJtMWVwd3loaW1iNWVjZXB5dDElMjIlMkMlMjJpbmQlMjIlM0ElN0IlMjJsZWZ0JTIyJTNBMCU3RCU3RCUyQyUyMm5vZGVzJTIyJTNBJTVCJTdCJTIya2xhc3MlMjIlM0ElMjJ0ZXh0JTIyJTJDJTIybGVhdmVzJTIyJTNBJTVCJTdCJTIya2xhc3MlMjIlM0ElMjJsZWFmJTIyJTJDJTIydGV4dCUyMiUzQSUyMnZpZGVvX29mZmxpbmVfZXdvcm0ubXVzY2xlLTIyMDQyOC0xNTI2MDEubnB5JTIyJTJDJTIybWFya3MlMjIlM0ElNUIlNUQlN0QlNUQlN0QlNUQlMkMlMjJjb250ZW50VHlwZSUyMiUzQSUyMmNhbmdqaWUtdGV4dGJsb2NrJTIyJTdEJTVEJTdE&quot; data-clipboard-cangjie=&quot;[&amp;quot;root&amp;quot;,{},[&amp;quot;p&amp;quot;,{&amp;quot;uuid&amp;quot;:&amp;quot;m1epwyhimb5ecepyt1&amp;quot;,&amp;quot;ind&amp;quot;:{&amp;quot;left&amp;quot;:0}},[&amp;quot;span&amp;quot;,{&amp;quot;data-type&amp;quot;:&amp;quot;text&amp;quot;},[&amp;quot;span&amp;quot;,{&amp;quot;data-type&amp;quot;:&amp;quot;leaf&amp;quot;},&amp;quot;video_offline_eworm.muscle-220428-152601.npy&amp;quot;]]]]&quot; class=&quot;4ever-article&quot;&gt;&lt;p style=&quot;text-align:left;text-indent:0;margin-left:0;margin-top:0;margin-bottom:0&quot;&gt;&lt;span data-type=&quot;text&quot;&gt;video_offline_eworm.muscle-220428-152601.npy预测的肌肉激活信号&lt;/span&gt;&lt;/p&gt;&lt;article data-identifier-application__slash__x-doc-key=&quot;YvenvKpNwQaVqoyZ&quot; data-identifier-application__slash__x-cangjie-fragment=&quot;JTdCJTIya2xhc3MlMjIlM0ElMjJkb2N1bWVudCUyMiUyQyUyMmRhdGElMjIlM0ElN0IlN0QlMkMlMjJub2RlcyUyMiUzQSU1QiU3QiUyMmtsYXNzJTIyJTNBJTIyYmxvY2slMjIlMkMlMjJ0eXBlJTIyJTNBJTIycGFyYWdyYXBoJTIyJTJDJTIyZGF0YSUyMiUzQSU3QiUyMnV1aWQlMjIlM0ElMjJtMWVydW1pcWtmOXhiaTJuMnVyJTIyJTJDJTIyaW5kJTIyJTNBJTdCJTIybGVmdCUyMiUzQTAlN0QlN0QlMkMlMjJub2RlcyUyMiUzQSU1QiU3QiUyMmtsYXNzJTIyJTNBJTIydGV4dCUyMiUyQyUyMmxlYXZlcyUyMiUzQSU1QiU3QiUyMmtsYXNzJTIyJTNBJTIybGVhZiUyMiUyQyUyMnRleHQlMjIlM0ElMjJndF9ld29ybS5tdXNjbGUtMjIwNDI4LTE1MjYwMS5ucHklMjIlMkMlMjJtYXJrcyUyMiUzQSU1QiU1RCU3RCU1RCU3RCU1RCUyQyUyMmNvbnRlbnRUeXBlJTIyJTNBJTIyY2FuZ2ppZS10ZXh0YmxvY2slMjIlN0QlNUQlN0Q=&quot; data-clipboard-cangjie=&quot;[&amp;quot;root&amp;quot;,{},[&amp;quot;p&amp;quot;,{&amp;quot;uuid&amp;quot;:&amp;quot;m1erumiqkf9xbi2n2ur&amp;quot;,&amp;quot;ind&amp;quot;:{&amp;quot;left&amp;quot;:0}},[&amp;quot;span&amp;quot;,{&amp;quot;data-type&amp;quot;:&amp;quot;text&amp;quot;},[&amp;quot;span&amp;quot;,{&amp;quot;data-type&amp;quot;:&amp;quot;leaf&amp;quot;},&amp;quot;gt_eworm.muscle-220428-152601.npy&amp;quot;]]]]&quot; class=&quot;4ever-article&quot;&gt;&lt;p style=&quot;text-align:left;text-indent:0;margin-left:0;margin-top:0;margin-bottom:0&quot;&gt;&lt;span data-type=&quot;text&quot;&gt;gt_eworm.muscle-220428-152601.npy：实际的肌肉激活信号&lt;/span&gt;&lt;/p&gt;&lt;/article&gt;&lt;p style=&quot;text-align:left;text-indent:0;margin-left:0;margin-top:0;margin-bottom:0&quot;&gt;&lt;/p&gt;&lt;p style=&quot;text-align:left;text-indent:0;margin-left:0;margin-top:0;margin-bottom:0&quot;&gt;&lt;span data-type=&quot;text&quot;&gt;&lt;br&gt;&lt;/span&gt;&lt;/p&gt;&lt;/article&gt;&lt;/div&gt;" style="text;html=1;align=center;verticalAlign=middle;whiteSpace=wrap;rounded=0;fontFamily=Helvetica;fontSize=12;fontColor=default;" parent="1" vertex="1">
          <mxGeometry x="-2832" y="2533" width="300" height="90" as="geometry" />
        </mxCell>
        <mxCell id="FKYkS-hTosPglD_a-o6q-52" value="&lt;div&gt;.swc&lt;/div&gt;&lt;div&gt;.snp&lt;/div&gt;&lt;div&gt;.vtg&lt;br&gt;&lt;/div&gt;" style="text;html=1;align=center;verticalAlign=middle;whiteSpace=wrap;rounded=0;fontFamily=Helvetica;fontSize=12;fontColor=default;" parent="1" vertex="1">
          <mxGeometry x="-2602" y="2808" width="60" height="30" as="geometry" />
        </mxCell>
        <mxCell id="FKYkS-hTosPglD_a-o6q-53" value="eworm_learn：训练网络权重（BPTT）" style="rounded=0;whiteSpace=wrap;html=1;align=center;verticalAlign=middle;fontFamily=Helvetica;fontSize=12;fontColor=default;fillColor=none;gradientColor=none;" parent="1" vertex="1">
          <mxGeometry x="-2262" y="2288" width="160" height="130" as="geometry" />
        </mxCell>
        <mxCell id="FKYkS-hTosPglD_a-o6q-54" value="输入：65个神经元的Pearson相关系数矩阵（由全脑细胞级分辨率的钙离子成像实验得到）" style="text;html=1;align=center;verticalAlign=middle;whiteSpace=wrap;rounded=0;fontFamily=Helvetica;fontSize=12;fontColor=default;" parent="1" vertex="1">
          <mxGeometry x="-2252" y="2228" width="140" height="50" as="geometry" />
        </mxCell>
        <mxCell id="FKYkS-hTosPglD_a-o6q-56" value="加载输入数据（.swc，.snp和.vtg文件）" style="rounded=0;whiteSpace=wrap;html=1;align=center;verticalAlign=middle;fontFamily=Helvetica;fontSize=12;fontColor=default;fillColor=none;gradientColor=none;" parent="1" vertex="1">
          <mxGeometry x="-2342" y="2758" width="120" height="60" as="geometry" />
        </mxCell>
        <mxCell id="FKYkS-hTosPglD_a-o6q-57" value="" style="endArrow=classic;html=1;rounded=0;fontFamily=Helvetica;fontSize=12;fontColor=default;" parent="1" edge="1">
          <mxGeometry width="50" height="50" relative="1" as="geometry">
            <mxPoint x="-2282.83" y="2808" as="sourcePoint" />
            <mxPoint x="-2283" y="2868" as="targetPoint" />
          </mxGeometry>
        </mxCell>
        <mxCell id="FKYkS-hTosPglD_a-o6q-58" value="Tubes::load()将上述文件load到neurons变量" style="rounded=0;whiteSpace=wrap;html=1;align=center;verticalAlign=middle;fontFamily=Helvetica;fontSize=12;fontColor=default;fillColor=none;gradientColor=none;" parent="1" vertex="1">
          <mxGeometry x="-2342" y="2868" width="120" height="60" as="geometry" />
        </mxCell>
        <mxCell id="FKYkS-hTosPglD_a-o6q-59" value="" style="endArrow=classic;html=1;rounded=0;fontFamily=Helvetica;fontSize=12;fontColor=default;" parent="1" edge="1">
          <mxGeometry width="50" height="50" relative="1" as="geometry">
            <mxPoint x="-2282" y="2928" as="sourcePoint" />
            <mxPoint x="-2282" y="2978" as="targetPoint" />
          </mxGeometry>
        </mxCell>
        <mxCell id="FKYkS-hTosPglD_a-o6q-60" value="建立窗口widget，将上面的变量绑定到widget上" style="rounded=0;whiteSpace=wrap;html=1;align=center;verticalAlign=middle;fontFamily=Helvetica;fontSize=12;fontColor=default;fillColor=none;gradientColor=none;" parent="1" vertex="1">
          <mxGeometry x="-2342" y="2978" width="120" height="60" as="geometry" />
        </mxCell>
        <mxCell id="FKYkS-hTosPglD_a-o6q-61" value="进入SimulationWindow.cpp，初始化控制器" style="rounded=0;whiteSpace=wrap;html=1;align=center;verticalAlign=middle;fontFamily=Helvetica;fontSize=12;fontColor=default;fillColor=none;gradientColor=none;" parent="1" vertex="1">
          <mxGeometry x="-2347" y="3068" width="130" height="60" as="geometry" />
        </mxCell>
        <mxCell id="FKYkS-hTosPglD_a-o6q-62" value="MC_C302" style="rounded=0;whiteSpace=wrap;html=1;align=center;verticalAlign=middle;fontFamily=Helvetica;fontSize=12;fontColor=default;fillColor=none;gradientColor=none;" parent="1" vertex="1">
          <mxGeometry x="-2192" y="3058" width="80" height="30" as="geometry" />
        </mxCell>
        <mxCell id="FKYkS-hTosPglD_a-o6q-63" value="MC_ANN" style="rounded=0;whiteSpace=wrap;html=1;align=center;verticalAlign=middle;fontFamily=Helvetica;fontSize=12;fontColor=default;fillColor=none;gradientColor=none;" parent="1" vertex="1">
          <mxGeometry x="-2192" y="3108" width="80" height="30" as="geometry" />
        </mxCell>
        <mxCell id="FKYkS-hTosPglD_a-o6q-65" value="" style="endArrow=classic;html=1;rounded=0;fontFamily=Helvetica;fontSize=12;fontColor=default;exitX=0.5;exitY=1;exitDx=0;exitDy=0;" parent="1" source="FKYkS-hTosPglD_a-o6q-61" edge="1">
          <mxGeometry width="50" height="50" relative="1" as="geometry">
            <mxPoint x="-2292" y="3188" as="sourcePoint" />
            <mxPoint x="-2282" y="3178" as="targetPoint" />
            <Array as="points" />
          </mxGeometry>
        </mxCell>
        <mxCell id="FKYkS-hTosPglD_a-o6q-67" value="调用boost::python，进入worm_in_env.py，执行Python文件" style="rounded=0;whiteSpace=wrap;html=1;align=center;verticalAlign=middle;fontFamily=Helvetica;fontSize=12;fontColor=default;fillColor=none;gradientColor=none;" parent="1" vertex="1">
          <mxGeometry x="-2347" y="3178" width="135" height="60" as="geometry" />
        </mxCell>
        <mxCell id="FKYkS-hTosPglD_a-o6q-68" value="" style="endArrow=classic;html=1;rounded=0;fontFamily=Helvetica;fontSize=12;fontColor=default;exitX=0.5;exitY=1;exitDx=0;exitDy=0;" parent="1" source="FKYkS-hTosPglD_a-o6q-67" edge="1">
          <mxGeometry width="50" height="50" relative="1" as="geometry">
            <mxPoint x="-2282" y="3348" as="sourcePoint" />
            <mxPoint x="-2279" y="3288" as="targetPoint" />
          </mxGeometry>
        </mxCell>
        <mxCell id="FKYkS-hTosPglD_a-o6q-69" value="在worm_in_env.py中添加食物和线虫对象，调用interact.add_worm，进入Metaworm/interact/interact.cpp" style="rounded=0;whiteSpace=wrap;html=1;align=center;verticalAlign=middle;fontFamily=Helvetica;fontSize=12;fontColor=default;fillColor=none;gradientColor=none;" parent="1" vertex="1">
          <mxGeometry x="-2354.5" y="3288" width="145" height="90" as="geometry" />
        </mxCell>
        <mxCell id="FKYkS-hTosPglD_a-o6q-70" value="interact.cpp中执行AddWorm，回到SimulationWindow.cpp中执行同名函数AddWorm，初始化Environment对象" style="rounded=0;whiteSpace=wrap;html=1;align=center;verticalAlign=middle;fontFamily=Helvetica;fontSize=12;fontColor=default;fillColor=none;gradientColor=none;" parent="1" vertex="1">
          <mxGeometry x="-2354" y="3428" width="142" height="70" as="geometry" />
        </mxCell>
        <mxCell id="FKYkS-hTosPglD_a-o6q-71" value="" style="endArrow=classic;html=1;rounded=0;fontFamily=Helvetica;fontSize=12;fontColor=default;" parent="1" edge="1">
          <mxGeometry width="50" height="50" relative="1" as="geometry">
            <mxPoint x="-2272" y="3378" as="sourcePoint" />
            <mxPoint x="-2272" y="3426" as="targetPoint" />
          </mxGeometry>
        </mxCell>
        <mxCell id="FKYkS-hTosPglD_a-o6q-72" value="" style="endArrow=classic;html=1;rounded=0;fontFamily=Helvetica;fontSize=12;fontColor=default;" parent="1" edge="1">
          <mxGeometry width="50" height="50" relative="1" as="geometry">
            <mxPoint x="-2272" y="3498" as="sourcePoint" />
            <mxPoint x="-2272" y="3548" as="targetPoint" />
          </mxGeometry>
        </mxCell>
        <mxCell id="FKYkS-hTosPglD_a-o6q-73" value="进入Environment.cpp,读入四面体数据和肌肉数据" style="rounded=0;whiteSpace=wrap;html=1;align=center;verticalAlign=middle;fontFamily=Helvetica;fontSize=12;fontColor=default;fillColor=none;gradientColor=none;" parent="1" vertex="1">
          <mxGeometry x="-2354" y="3548" width="145" height="70" as="geometry" />
        </mxCell>
        <mxCell id="pp-BciHuPh1qQ60pS0a8-3" value="&lt;font style=&quot;font-size: 29px;&quot;&gt;神经网络模块&lt;/font&gt;" style="text;html=1;align=center;verticalAlign=middle;whiteSpace=wrap;rounded=0;fontColor=#FF3333;fontStyle=1;strokeWidth=2;" parent="1" vertex="1">
          <mxGeometry x="-3192" y="-1703.5" width="180" height="100" as="geometry" />
        </mxCell>
        <mxCell id="pp-BciHuPh1qQ60pS0a8-8" value="" style="edgeStyle=orthogonalEdgeStyle;rounded=0;orthogonalLoop=1;jettySize=auto;html=1;strokeWidth=2;" parent="1" source="pp-BciHuPh1qQ60pS0a8-4" target="pp-BciHuPh1qQ60pS0a8-7" edge="1">
          <mxGeometry relative="1" as="geometry" />
        </mxCell>
        <mxCell id="pp-BciHuPh1qQ60pS0a8-4" value="&lt;div align=&quot;center&quot; style=&quot;font-size: 30px;&quot;&gt;&lt;font style=&quot;font-size: 30px;&quot;&gt;01_find_circuit&lt;br&gt;&lt;/font&gt;&lt;/div&gt;&lt;div align=&quot;center&quot; style=&quot;font-size: 30px;&quot;&gt;&lt;font style=&quot;font-size: 30px;&quot;&gt;建立神经元网络，随机权重&lt;font style=&quot;font-size: 30px;&quot;&gt;，NEURON模拟&lt;br&gt;&lt;/font&gt;&lt;/font&gt;&lt;/div&gt;" style="rounded=0;whiteSpace=wrap;html=1;align=left;fillColor=#dae8fc;strokeColor=#6c8ebf;strokeWidth=2;" parent="1" vertex="1">
          <mxGeometry x="-2832" y="-1511" width="300" height="135" as="geometry" />
        </mxCell>
        <mxCell id="pp-BciHuPh1qQ60pS0a8-7" value="&lt;font style=&quot;font-size: 30px;&quot;&gt;抽象网络信息（包括连接和权重）&lt;/font&gt;" style="ellipse;whiteSpace=wrap;html=1;rounded=0;strokeWidth=2;" parent="1" vertex="1">
          <mxGeometry x="-2482" y="-1508.5" width="270" height="130" as="geometry" />
        </mxCell>
        <mxCell id="pp-BciHuPh1qQ60pS0a8-11" value="&lt;div&gt;&lt;font style=&quot;font-size: 30px;&quot;&gt;eworm_learn&lt;br&gt;&lt;/font&gt;&lt;/div&gt;&lt;div&gt;&lt;font style=&quot;font-size: 30px;&quot;&gt;优化网络权重&lt;br&gt;&lt;/font&gt;&lt;/div&gt;" style="rounded=0;whiteSpace=wrap;html=1;fillColor=#f8cecc;strokeColor=#b85450;strokeWidth=2;" parent="1" vertex="1">
          <mxGeometry x="-2110.62" y="-1496" width="220" height="105" as="geometry" />
        </mxCell>
        <mxCell id="pp-BciHuPh1qQ60pS0a8-12" value="" style="endArrow=classic;html=1;rounded=0;entryX=0;entryY=0.5;entryDx=0;entryDy=0;exitX=1;exitY=0.5;exitDx=0;exitDy=0;strokeWidth=2;" parent="1" source="pp-BciHuPh1qQ60pS0a8-7" target="pp-BciHuPh1qQ60pS0a8-11" edge="1">
          <mxGeometry width="50" height="50" relative="1" as="geometry">
            <mxPoint x="-2177" y="-1453.5" as="sourcePoint" />
            <mxPoint x="-2127" y="-1503.5" as="targetPoint" />
          </mxGeometry>
        </mxCell>
        <mxCell id="pp-BciHuPh1qQ60pS0a8-14" value="" style="edgeStyle=orthogonalEdgeStyle;rounded=0;orthogonalLoop=1;jettySize=auto;html=1;strokeWidth=2;" parent="1" source="pp-BciHuPh1qQ60pS0a8-13" target="pp-BciHuPh1qQ60pS0a8-11" edge="1">
          <mxGeometry relative="1" as="geometry">
            <Array as="points">
              <mxPoint x="-2004.62" y="-1513.5" />
              <mxPoint x="-2004.62" y="-1513.5" />
            </Array>
          </mxGeometry>
        </mxCell>
        <mxCell id="pp-BciHuPh1qQ60pS0a8-13" value="&lt;div style=&quot;font-size: 30px;&quot;&gt;&lt;font style=&quot;font-size: 30px;&quot;&gt;ca_corr_mat&lt;br&gt;&lt;/font&gt;&lt;/div&gt;&lt;div&gt;&lt;font style=&quot;font-size: 21px;&quot;&gt;优化目标：65个神经元的相关系数矩阵&lt;/font&gt;&lt;/div&gt;" style="ellipse;whiteSpace=wrap;html=1;strokeWidth=2;" parent="1" vertex="1">
          <mxGeometry x="-2108.44" y="-1654" width="224.38" height="110" as="geometry" />
        </mxCell>
        <mxCell id="pp-BciHuPh1qQ60pS0a8-16" value="" style="endArrow=classic;html=1;rounded=0;strokeWidth=2;" parent="1" target="pp-BciHuPh1qQ60pS0a8-18" edge="1">
          <mxGeometry width="50" height="50" relative="1" as="geometry">
            <mxPoint x="-1997" y="-1393.5" as="sourcePoint" />
            <mxPoint x="-1994.5000000000005" y="-1343.5" as="targetPoint" />
          </mxGeometry>
        </mxCell>
        <mxCell id="pp-BciHuPh1qQ60pS0a8-38" style="edgeStyle=orthogonalEdgeStyle;rounded=0;orthogonalLoop=1;jettySize=auto;html=1;entryX=0.5;entryY=0;entryDx=0;entryDy=0;strokeWidth=2;" parent="1" source="pp-BciHuPh1qQ60pS0a8-17" target="pp-BciHuPh1qQ60pS0a8-37" edge="1">
          <mxGeometry relative="1" as="geometry" />
        </mxCell>
        <mxCell id="pp-BciHuPh1qQ60pS0a8-17" value="&lt;div&gt;&lt;font style=&quot;font-size: 30px;&quot;&gt;02_train_cnn.py&lt;br&gt;&lt;/font&gt;&lt;/div&gt;&lt;div&gt;&lt;font style=&quot;font-size: 30px;&quot;&gt;进行一次模拟，然后训练输出神经元信号到肌肉的映射&lt;br&gt;&lt;/font&gt;&lt;/div&gt;" style="rounded=0;whiteSpace=wrap;html=1;fillColor=#dae8fc;strokeColor=#6c8ebf;strokeWidth=2;" parent="1" vertex="1">
          <mxGeometry x="-2120" y="-1173.5" width="247.5" height="150" as="geometry" />
        </mxCell>
        <mxCell id="pp-BciHuPh1qQ60pS0a8-18" value="&lt;div&gt;&lt;font style=&quot;font-size: 30px;&quot;&gt;优化后的抽象网络信息&lt;/font&gt;&lt;/div&gt;" style="ellipse;whiteSpace=wrap;html=1;strokeWidth=2;" parent="1" vertex="1">
          <mxGeometry x="-2127.5" y="-1313.5" width="260" height="88" as="geometry" />
        </mxCell>
        <mxCell id="pp-BciHuPh1qQ60pS0a8-19" value="" style="endArrow=classic;html=1;rounded=0;exitX=0.5;exitY=1;exitDx=0;exitDy=0;strokeWidth=2;" parent="1" source="pp-BciHuPh1qQ60pS0a8-18" target="pp-BciHuPh1qQ60pS0a8-17" edge="1">
          <mxGeometry width="50" height="50" relative="1" as="geometry">
            <mxPoint x="-2130" y="-1803.5" as="sourcePoint" />
            <mxPoint x="-2340" y="-1783.5" as="targetPoint" />
          </mxGeometry>
        </mxCell>
        <mxCell id="pp-BciHuPh1qQ60pS0a8-20" value="" style="endArrow=classic;html=1;rounded=0;exitX=0.5;exitY=1;exitDx=0;exitDy=0;strokeWidth=2;" parent="1" source="pp-BciHuPh1qQ60pS0a8-21" target="pp-BciHuPh1qQ60pS0a8-13" edge="1">
          <mxGeometry width="50" height="50" relative="1" as="geometry">
            <mxPoint x="-2002.62" y="-1723.5" as="sourcePoint" />
            <mxPoint x="-1950.62" y="-1773.5" as="targetPoint" />
          </mxGeometry>
        </mxCell>
        <mxCell id="pp-BciHuPh1qQ60pS0a8-21" value="&lt;div&gt;&lt;font style=&quot;font-size: 29px;&quot;&gt;全脑钙成像&lt;font style=&quot;font-size: 29px;&quot;&gt;实验&lt;/font&gt;&lt;br&gt;&lt;/font&gt;&lt;/div&gt;&lt;div style=&quot;font-size: 20px;&quot;&gt;&lt;font style=&quot;font-size: 20px;&quot;&gt;（a prior study）&lt;br&gt;&lt;/font&gt;&lt;/div&gt;" style="ellipse;whiteSpace=wrap;html=1;fillColor=#f8cecc;strokeColor=#b85450;strokeWidth=2;" parent="1" vertex="1">
          <mxGeometry x="-2100.62" y="-1803.5" width="210" height="100" as="geometry" />
        </mxCell>
        <mxCell id="pp-BciHuPh1qQ60pS0a8-25" value="&lt;div&gt;&lt;font style=&quot;font-size: 30px;&quot;&gt;03_make_morph.py&lt;br&gt;&lt;/font&gt;&lt;/div&gt;&lt;div style=&quot;font-size: 30px;&quot;&gt;&lt;font style=&quot;font-size: 30px;&quot;&gt;进行一次模拟，导出所有神经元膜电位、神经元形态、连接&lt;/font&gt;&lt;/div&gt;" style="rounded=0;whiteSpace=wrap;html=1;fillColor=#dae8fc;strokeColor=#6c8ebf;strokeWidth=2;" parent="1" vertex="1">
          <mxGeometry x="-2774.5" y="-1213.5" width="340" height="155" as="geometry" />
        </mxCell>
        <mxCell id="pp-BciHuPh1qQ60pS0a8-26" value="" style="endArrow=classic;html=1;rounded=0;entryX=0.5;entryY=0;entryDx=0;entryDy=0;strokeWidth=2;" parent="1" target="pp-BciHuPh1qQ60pS0a8-27" edge="1">
          <mxGeometry width="50" height="50" relative="1" as="geometry">
            <mxPoint x="-2000" y="-1023.5" as="sourcePoint" />
            <mxPoint x="-1950" y="-1063.5" as="targetPoint" />
          </mxGeometry>
        </mxCell>
        <mxCell id="pp-BciHuPh1qQ60pS0a8-27" value="&lt;font style=&quot;font-size: 30px;&quot;&gt;映射权重矩阵&lt;/font&gt;" style="ellipse;whiteSpace=wrap;html=1;strokeWidth=2;" parent="1" vertex="1">
          <mxGeometry x="-2132.5" y="-993.5" width="265" height="100" as="geometry" />
        </mxCell>
        <mxCell id="pp-BciHuPh1qQ60pS0a8-29" value="&lt;font style=&quot;font-size: 30px;&quot;&gt;模拟仿真模块&lt;/font&gt;" style="text;html=1;align=center;verticalAlign=middle;whiteSpace=wrap;rounded=0;fontColor=#FF3333;fontStyle=1;strokeWidth=2;" parent="1" vertex="1">
          <mxGeometry x="-3162" y="206.5" width="270" height="80" as="geometry" />
        </mxCell>
        <mxCell id="pp-BciHuPh1qQ60pS0a8-32" value="&lt;font style=&quot;font-size: 30px;&quot;&gt;输入、输出电压变化图&lt;/font&gt;" style="ellipse;whiteSpace=wrap;html=1;strokeWidth=2;" parent="1" vertex="1">
          <mxGeometry x="-2482" y="-1623.5" width="210" height="90" as="geometry" />
        </mxCell>
        <mxCell id="pp-BciHuPh1qQ60pS0a8-36" value="&lt;font style=&quot;font-size: 30px;&quot;&gt;实际的肌肉激活信号&lt;/font&gt;" style="ellipse;whiteSpace=wrap;html=1;strokeWidth=2;" parent="1" vertex="1">
          <mxGeometry x="-1840" y="-998.5" width="236" height="110" as="geometry" />
        </mxCell>
        <mxCell id="pp-BciHuPh1qQ60pS0a8-37" value="&lt;font style=&quot;font-size: 30px;&quot;&gt;预测的肌肉激活信号&lt;/font&gt;" style="ellipse;whiteSpace=wrap;html=1;strokeWidth=2;" parent="1" vertex="1">
          <mxGeometry x="-2392" y="-998.5" width="240" height="110" as="geometry" />
        </mxCell>
        <mxCell id="pp-BciHuPh1qQ60pS0a8-40" value="" style="endArrow=classic;html=1;rounded=0;entryX=0.5;entryY=0;entryDx=0;entryDy=0;strokeWidth=2;" parent="1" target="pp-BciHuPh1qQ60pS0a8-25" edge="1">
          <mxGeometry width="50" height="50" relative="1" as="geometry">
            <mxPoint x="-2127.5" y="-1265.5" as="sourcePoint" />
            <mxPoint x="-2612" y="-1235.5" as="targetPoint" />
            <Array as="points">
              <mxPoint x="-2367.5" y="-1265.5" />
              <mxPoint x="-2604" y="-1265.5" />
            </Array>
          </mxGeometry>
        </mxCell>
        <mxCell id="pp-BciHuPh1qQ60pS0a8-41" value="" style="endArrow=classic;html=1;rounded=0;entryX=0;entryY=0.5;entryDx=0;entryDy=0;strokeWidth=2;" parent="1" target="pp-BciHuPh1qQ60pS0a8-32" edge="1">
          <mxGeometry width="50" height="50" relative="1" as="geometry">
            <mxPoint x="-2692" y="-1513.5" as="sourcePoint" />
            <mxPoint x="-2642" y="-1563.5" as="targetPoint" />
            <Array as="points">
              <mxPoint x="-2692" y="-1578.5" />
            </Array>
          </mxGeometry>
        </mxCell>
        <mxCell id="pp-BciHuPh1qQ60pS0a8-43" value="&lt;font style=&quot;font-size: 30px;&quot;&gt;膜电位、神经元形态、突触连接信息&lt;/font&gt;" style="ellipse;whiteSpace=wrap;html=1;strokeWidth=2;" parent="1" vertex="1">
          <mxGeometry x="-2736.5" y="-903.5" width="264" height="122.5" as="geometry" />
        </mxCell>
        <mxCell id="pp-BciHuPh1qQ60pS0a8-44" value="" style="endArrow=classic;html=1;rounded=0;entryX=0.5;entryY=0;entryDx=0;entryDy=0;strokeWidth=2;" parent="1" target="pp-BciHuPh1qQ60pS0a8-43" edge="1">
          <mxGeometry width="50" height="50" relative="1" as="geometry">
            <mxPoint x="-2605" y="-1063.5" as="sourcePoint" />
            <mxPoint x="-2562" y="-1103.5" as="targetPoint" />
          </mxGeometry>
        </mxCell>
        <mxCell id="pp-BciHuPh1qQ60pS0a8-45" value="" style="rounded=0;whiteSpace=wrap;html=1;fillColor=#dae8fc;strokeColor=#6c8ebf;strokeWidth=2;" parent="1" vertex="1">
          <mxGeometry x="-2788.88" y="-663.5" width="373.75" height="830" as="geometry" />
        </mxCell>
        <mxCell id="pp-BciHuPh1qQ60pS0a8-46" value="&lt;font style=&quot;font-size: 32px;&quot;&gt;加载上面的输入数据&lt;/font&gt;" style="rounded=0;whiteSpace=wrap;html=1;strokeWidth=2;" parent="1" vertex="1">
          <mxGeometry x="-2712" y="-643.5" width="220" height="80" as="geometry" />
        </mxCell>
        <mxCell id="pp-BciHuPh1qQ60pS0a8-47" value="&lt;div style=&quot;font-size: 30px;&quot;&gt;&lt;font style=&quot;font-size: 30px;&quot;&gt;neuronXCore.cpp&lt;/font&gt;&lt;/div&gt;&lt;font style=&quot;font-size: 30px;&quot;&gt;模拟/渲染主模块&lt;/font&gt;" style="text;html=1;align=center;verticalAlign=middle;whiteSpace=wrap;rounded=0;strokeWidth=2;" parent="1" vertex="1">
          <mxGeometry x="-2925" y="-710.5" width="340" height="30" as="geometry" />
        </mxCell>
        <mxCell id="pp-BciHuPh1qQ60pS0a8-48" value="" style="endArrow=classic;html=1;rounded=0;entryX=0.5;entryY=0;entryDx=0;entryDy=0;strokeWidth=2;" parent="1" target="pp-BciHuPh1qQ60pS0a8-46" edge="1">
          <mxGeometry width="50" height="50" relative="1" as="geometry">
            <mxPoint x="-2602" y="-783.5" as="sourcePoint" />
            <mxPoint x="-2552" y="-833.5" as="targetPoint" />
          </mxGeometry>
        </mxCell>
        <mxCell id="pp-BciHuPh1qQ60pS0a8-49" value="&lt;font style=&quot;font-size: 30px;&quot;&gt;创建渲染后端&lt;/font&gt;" style="rounded=0;whiteSpace=wrap;html=1;strokeWidth=2;" parent="1" vertex="1">
          <mxGeometry x="-2719.5" y="-543.5" width="230" height="80" as="geometry" />
        </mxCell>
        <mxCell id="pp-BciHuPh1qQ60pS0a8-50" value="" style="endArrow=classic;html=1;rounded=0;endWidth=20;strokeWidth=2;" parent="1" target="pp-BciHuPh1qQ60pS0a8-49" edge="1">
          <mxGeometry width="50" height="50" relative="1" as="geometry">
            <mxPoint x="-2607" y="-563.5" as="sourcePoint" />
            <mxPoint x="-2562" y="-613.5" as="targetPoint" />
          </mxGeometry>
        </mxCell>
        <mxCell id="pp-BciHuPh1qQ60pS0a8-51" value="&lt;font style=&quot;font-size: 30px;&quot;&gt;神经元形态（&lt;/font&gt;&lt;font style=&quot;font-size: 30px;&quot;&gt;hoc文件）&lt;/font&gt;" style="ellipse;whiteSpace=wrap;html=1;strokeWidth=2;" parent="1" vertex="1">
          <mxGeometry x="-3122" y="-1511" width="250" height="90" as="geometry" />
        </mxCell>
        <mxCell id="pp-BciHuPh1qQ60pS0a8-52" value="&lt;font style=&quot;font-size: 30px;&quot;&gt;电生理学数&lt;/font&gt;&lt;font style=&quot;font-size: 30px;&quot;&gt;据（mod文件）&lt;/font&gt;" style="ellipse;whiteSpace=wrap;html=1;strokeWidth=2;" parent="1" vertex="1">
          <mxGeometry x="-3122" y="-1403.5" width="250" height="90" as="geometry" />
        </mxCell>
        <mxCell id="pp-BciHuPh1qQ60pS0a8-53" value="&lt;font style=&quot;font-size: 30px;&quot;&gt;连接矩阵&lt;font style=&quot;font-size: 30px;&quot;&gt;（Excel&lt;/font&gt;&lt;/font&gt;&lt;font style=&quot;font-size: 30px;&quot;&gt;文件）&lt;/font&gt;" style="ellipse;whiteSpace=wrap;html=1;strokeWidth=2;" parent="1" vertex="1">
          <mxGeometry x="-3122" y="-1613.5" width="250" height="85" as="geometry" />
        </mxCell>
        <mxCell id="pp-BciHuPh1qQ60pS0a8-54" value="&lt;font style=&quot;font-size: 30px;&quot;&gt;创建GLFW窗口&lt;/font&gt;" style="rounded=0;whiteSpace=wrap;html=1;strokeWidth=2;" parent="1" vertex="1">
          <mxGeometry x="-2725.75" y="-383.5" width="230" height="80" as="geometry" />
        </mxCell>
        <mxCell id="pp-BciHuPh1qQ60pS0a8-55" value="" style="endArrow=classic;html=1;rounded=0;entryX=0.5;entryY=0;entryDx=0;entryDy=0;strokeWidth=2;" parent="1" target="pp-BciHuPh1qQ60pS0a8-54" edge="1">
          <mxGeometry width="50" height="50" relative="1" as="geometry">
            <mxPoint x="-2611" y="-403.5" as="sourcePoint" />
            <mxPoint x="-2562" y="-483.5" as="targetPoint" />
            <Array as="points">
              <mxPoint x="-2611" y="-463.5" />
            </Array>
          </mxGeometry>
        </mxCell>
        <mxCell id="pp-BciHuPh1qQ60pS0a8-56" value="&lt;font style=&quot;font-size: 30px;&quot;&gt;调用SimulationWindow模块&lt;/font&gt;" style="rounded=0;whiteSpace=wrap;html=1;strokeWidth=2;" parent="1" vertex="1">
          <mxGeometry x="-2727.75" y="-203.5" width="234" height="90" as="geometry" />
        </mxCell>
        <mxCell id="pp-BciHuPh1qQ60pS0a8-57" value="" style="endArrow=classic;html=1;rounded=0;entryX=0.5;entryY=0;entryDx=0;entryDy=0;strokeWidth=2;" parent="1" target="pp-BciHuPh1qQ60pS0a8-56" edge="1">
          <mxGeometry width="50" height="50" relative="1" as="geometry">
            <mxPoint x="-2611" y="-303.5" as="sourcePoint" />
            <mxPoint x="-2562" y="-363.5" as="targetPoint" />
          </mxGeometry>
        </mxCell>
        <mxCell id="pp-BciHuPh1qQ60pS0a8-59" value="" style="rounded=0;whiteSpace=wrap;html=1;fillColor=#dae8fc;strokeColor=#6c8ebf;strokeWidth=2;" parent="1" vertex="1">
          <mxGeometry x="-2367.5" y="-623.5" width="500" height="420" as="geometry" />
        </mxCell>
        <mxCell id="pp-BciHuPh1qQ60pS0a8-60" value="" style="endArrow=classic;html=1;rounded=0;entryX=0.5;entryY=0;entryDx=0;entryDy=0;strokeWidth=2;" parent="1" target="pp-BciHuPh1qQ60pS0a8-61" edge="1">
          <mxGeometry width="50" height="50" relative="1" as="geometry">
            <mxPoint x="-2610" y="-13.5" as="sourcePoint" />
            <mxPoint x="-2562" y="-213.5" as="targetPoint" />
          </mxGeometry>
        </mxCell>
        <mxCell id="pp-BciHuPh1qQ60pS0a8-61" value="&lt;font style=&quot;font-size: 30px;&quot;&gt;模拟&lt;/font&gt;&lt;font style=&quot;font-size: 30px;&quot;&gt;与显示&lt;/font&gt;" style="rounded=0;whiteSpace=wrap;html=1;strokeWidth=2;" parent="1" vertex="1">
          <mxGeometry x="-2728" y="36.5" width="236" height="90" as="geometry" />
        </mxCell>
        <mxCell id="pp-BciHuPh1qQ60pS0a8-62" value="&lt;div style=&quot;font-size: 30px;&quot;&gt;&lt;font style=&quot;font-size: 30px;&quot;&gt;SimulationWindow.cpp&lt;/font&gt;&lt;/div&gt;&lt;font style=&quot;font-size: 30px;&quot;&gt;线虫与整体仿真环境类&lt;/font&gt;" style="text;html=1;align=center;verticalAlign=middle;whiteSpace=wrap;rounded=0;strokeWidth=2;" parent="1" vertex="1">
          <mxGeometry x="-2402" y="-683.5" width="340" height="30" as="geometry" />
        </mxCell>
        <mxCell id="pp-BciHuPh1qQ60pS0a8-64" value="" style="endArrow=none;dashed=1;html=1;rounded=0;entryX=0;entryY=0;entryDx=0;entryDy=0;exitX=1;exitY=0;exitDx=0;exitDy=0;strokeWidth=2;" parent="1" source="pp-BciHuPh1qQ60pS0a8-56" target="pp-BciHuPh1qQ60pS0a8-59" edge="1">
          <mxGeometry width="50" height="50" relative="1" as="geometry">
            <mxPoint x="-2492" y="-263.5" as="sourcePoint" />
            <mxPoint x="-2442" y="-313.5" as="targetPoint" />
          </mxGeometry>
        </mxCell>
        <mxCell id="pp-BciHuPh1qQ60pS0a8-65" value="" style="endArrow=none;dashed=1;html=1;rounded=0;entryX=0;entryY=1;entryDx=0;entryDy=0;exitX=1;exitY=1;exitDx=0;exitDy=0;strokeWidth=2;" parent="1" source="pp-BciHuPh1qQ60pS0a8-56" target="pp-BciHuPh1qQ60pS0a8-59" edge="1">
          <mxGeometry width="50" height="50" relative="1" as="geometry">
            <mxPoint x="-2492" y="-173.5" as="sourcePoint" />
            <mxPoint x="-2442" y="-223.5" as="targetPoint" />
          </mxGeometry>
        </mxCell>
        <mxCell id="pp-BciHuPh1qQ60pS0a8-66" value="&lt;font style=&quot;font-size: 30px;&quot;&gt;初始化（导入外部库和Python）&lt;/font&gt;" style="rounded=0;whiteSpace=wrap;html=1;strokeWidth=2;" parent="1" vertex="1">
          <mxGeometry x="-2237" y="-593.5" width="220" height="100" as="geometry" />
        </mxCell>
        <mxCell id="pp-BciHuPh1qQ60pS0a8-67" value="" style="endArrow=classic;html=1;rounded=0;entryX=0.5;entryY=0;entryDx=0;entryDy=0;exitX=0.5;exitY=1;exitDx=0;exitDy=0;strokeWidth=2;" parent="1" source="pp-BciHuPh1qQ60pS0a8-66" target="pp-BciHuPh1qQ60pS0a8-68" edge="1">
          <mxGeometry width="50" height="50" relative="1" as="geometry">
            <mxPoint x="-2222" y="-493.5" as="sourcePoint" />
            <mxPoint x="-1452" y="-513.5" as="targetPoint" />
          </mxGeometry>
        </mxCell>
        <mxCell id="pp-BciHuPh1qQ60pS0a8-68" value="&lt;font style=&quot;font-size: 30px;&quot;&gt;调用Python加载线虫&lt;/font&gt;&lt;font style=&quot;font-size: 30px;&quot;&gt;网络与仿真环境&lt;/font&gt;" style="rounded=0;whiteSpace=wrap;html=1;strokeWidth=2;" parent="1" vertex="1">
          <mxGeometry x="-2104.62" y="-433.5" width="212.62" height="120" as="geometry" />
        </mxCell>
        <mxCell id="pp-BciHuPh1qQ60pS0a8-69" value="&lt;font style=&quot;font-size: 30px;&quot;&gt;加载ANN控制器&lt;/font&gt;" style="rounded=0;whiteSpace=wrap;html=1;dashed=1;dashPattern=8 8;fillColor=#f8cecc;strokeColor=#b85450;strokeWidth=2;" parent="1" vertex="1">
          <mxGeometry x="-2348" y="-431" width="226" height="117.5" as="geometry" />
        </mxCell>
        <mxCell id="pp-BciHuPh1qQ60pS0a8-70" value="" style="endArrow=none;html=1;rounded=0;exitX=0.5;exitY=0;exitDx=0;exitDy=0;strokeWidth=2;" parent="1" source="pp-BciHuPh1qQ60pS0a8-69" edge="1">
          <mxGeometry width="50" height="50" relative="1" as="geometry">
            <mxPoint x="-2172" y="-443.5" as="sourcePoint" />
            <mxPoint x="-2122" y="-493.5" as="targetPoint" />
          </mxGeometry>
        </mxCell>
        <mxCell id="pp-BciHuPh1qQ60pS0a8-74" value="" style="rounded=0;whiteSpace=wrap;html=1;fillColor=#ffe6cc;strokeColor=#d79b00;strokeWidth=2;" parent="1" vertex="1">
          <mxGeometry x="-1802" y="-633.5" width="410" height="740" as="geometry" />
        </mxCell>
        <mxCell id="pp-BciHuPh1qQ60pS0a8-75" value="" style="endArrow=none;dashed=1;html=1;rounded=0;entryX=0;entryY=0;entryDx=0;entryDy=0;strokeWidth=2;" parent="1" target="pp-BciHuPh1qQ60pS0a8-74" edge="1">
          <mxGeometry width="50" height="50" relative="1" as="geometry">
            <mxPoint x="-1902" y="-433.5" as="sourcePoint" />
            <mxPoint x="-1852" y="-483.5" as="targetPoint" />
          </mxGeometry>
        </mxCell>
        <mxCell id="pp-BciHuPh1qQ60pS0a8-76" value="" style="endArrow=none;dashed=1;html=1;rounded=0;entryX=0;entryY=1;entryDx=0;entryDy=0;exitX=1;exitY=1;exitDx=0;exitDy=0;strokeWidth=2;" parent="1" source="pp-BciHuPh1qQ60pS0a8-68" target="pp-BciHuPh1qQ60pS0a8-74" edge="1">
          <mxGeometry width="50" height="50" relative="1" as="geometry">
            <mxPoint x="-1892" y="-303.5" as="sourcePoint" />
            <mxPoint x="-1852" y="-383.5" as="targetPoint" />
          </mxGeometry>
        </mxCell>
        <mxCell id="pp-BciHuPh1qQ60pS0a8-77" value="&lt;font style=&quot;font-size: 30px;&quot;&gt;窗口对象&lt;/font&gt;" style="ellipse;whiteSpace=wrap;html=1;strokeWidth=2;" parent="1" vertex="1">
          <mxGeometry x="-2712" y="-289.75" width="195.75" height="62.5" as="geometry" />
        </mxCell>
        <mxCell id="pp-BciHuPh1qQ60pS0a8-78" value="&lt;font style=&quot;font-size: 30px;&quot;&gt;待&lt;font style=&quot;font-size: 30px;&quot;&gt;渲染的&lt;font style=&quot;font-size: 30px;&quot;&gt;对象&lt;/font&gt;&lt;/font&gt;&lt;/font&gt;" style="ellipse;whiteSpace=wrap;html=1;strokeWidth=2;" parent="1" vertex="1">
          <mxGeometry x="-2715.37" y="-453.5" width="202.5" height="60" as="geometry" />
        </mxCell>
        <mxCell id="pp-BciHuPh1qQ60pS0a8-79" value="&lt;font style=&quot;font-size: 30px;&quot;&gt;一些设置&lt;/font&gt;" style="rounded=0;whiteSpace=wrap;html=1;strokeWidth=2;" parent="1" vertex="1">
          <mxGeometry x="-2732" y="-73.5" width="240" height="80" as="geometry" />
        </mxCell>
        <mxCell id="pp-BciHuPh1qQ60pS0a8-80" value="" style="endArrow=classic;html=1;rounded=0;exitX=0.5;exitY=1;exitDx=0;exitDy=0;entryX=0.5;entryY=0;entryDx=0;entryDy=0;strokeWidth=2;" parent="1" source="pp-BciHuPh1qQ60pS0a8-56" target="pp-BciHuPh1qQ60pS0a8-79" edge="1">
          <mxGeometry width="50" height="50" relative="1" as="geometry">
            <mxPoint x="-2612" y="-94.21067811865487" as="sourcePoint" />
            <mxPoint x="-2622" y="-83.5" as="targetPoint" />
          </mxGeometry>
        </mxCell>
        <mxCell id="pp-BciHuPh1qQ60pS0a8-81" value="&lt;font style=&quot;font-size: 24px;&quot;&gt;物理环境中的位置（用于计算输入信号）&lt;/font&gt;" style="ellipse;whiteSpace=wrap;html=1;fontSize=24;fillColor=#f8cecc;strokeColor=#b85450;strokeWidth=2;" parent="1" vertex="1">
          <mxGeometry x="-3122" y="-1293.5" width="250" height="90" as="geometry" />
        </mxCell>
        <mxCell id="pp-BciHuPh1qQ60pS0a8-82" value="" style="endArrow=classic;html=1;rounded=0;entryX=0;entryY=0.5;entryDx=0;entryDy=0;strokeWidth=2;" parent="1" target="pp-BciHuPh1qQ60pS0a8-4" edge="1">
          <mxGeometry width="50" height="50" relative="1" as="geometry">
            <mxPoint x="-2872" y="-1243.5" as="sourcePoint" />
            <mxPoint x="-2822" y="-1293.5" as="targetPoint" />
          </mxGeometry>
        </mxCell>
        <mxCell id="pp-BciHuPh1qQ60pS0a8-83" value="" style="endArrow=classic;html=1;rounded=0;entryX=0;entryY=0.5;entryDx=0;entryDy=0;strokeWidth=2;" parent="1" target="pp-BciHuPh1qQ60pS0a8-4" edge="1">
          <mxGeometry width="50" height="50" relative="1" as="geometry">
            <mxPoint x="-2872" y="-1563.5" as="sourcePoint" />
            <mxPoint x="-2822" y="-1613.5" as="targetPoint" />
          </mxGeometry>
        </mxCell>
        <mxCell id="pp-BciHuPh1qQ60pS0a8-84" value="" style="endArrow=classic;html=1;rounded=0;strokeWidth=2;" parent="1" edge="1">
          <mxGeometry width="50" height="50" relative="1" as="geometry">
            <mxPoint x="-2872" y="-1463.5" as="sourcePoint" />
            <mxPoint x="-2832" y="-1446" as="targetPoint" />
          </mxGeometry>
        </mxCell>
        <mxCell id="pp-BciHuPh1qQ60pS0a8-85" value="" style="endArrow=classic;html=1;rounded=0;strokeWidth=2;" parent="1" edge="1">
          <mxGeometry width="50" height="50" relative="1" as="geometry">
            <mxPoint x="-2872" y="-1353.5" as="sourcePoint" />
            <mxPoint x="-2832" y="-1443.5" as="targetPoint" />
          </mxGeometry>
        </mxCell>
        <mxCell id="pp-BciHuPh1qQ60pS0a8-86" value="&lt;font style=&quot;font-size: 24px;&quot;&gt;物理环境中的位置（用于计算输入信号）&lt;/font&gt;" style="ellipse;whiteSpace=wrap;html=1;fillColor=#f8cecc;strokeColor=#b85450;strokeWidth=2;" parent="1" vertex="1">
          <mxGeometry x="-1847" y="-1283.5" width="250" height="90" as="geometry" />
        </mxCell>
        <mxCell id="pp-BciHuPh1qQ60pS0a8-87" value="&lt;font style=&quot;font-size: 25px;&quot;&gt;肌肉激活信号&lt;/font&gt;" style="ellipse;whiteSpace=wrap;html=1;fillColor=#f8cecc;strokeColor=#b85450;strokeWidth=2;" parent="1" vertex="1">
          <mxGeometry x="-1840" y="-1176" width="250" height="80" as="geometry" />
        </mxCell>
        <mxCell id="pp-BciHuPh1qQ60pS0a8-88" value="" style="endArrow=classic;html=1;rounded=0;exitX=0;exitY=0.5;exitDx=0;exitDy=0;strokeWidth=2;" parent="1" source="pp-BciHuPh1qQ60pS0a8-86" edge="1">
          <mxGeometry width="50" height="50" relative="1" as="geometry">
            <mxPoint x="-1802" y="-1253.5" as="sourcePoint" />
            <mxPoint x="-1992" y="-1173.5" as="targetPoint" />
          </mxGeometry>
        </mxCell>
        <mxCell id="pp-BciHuPh1qQ60pS0a8-89" value="" style="endArrow=classic;html=1;rounded=0;entryX=1;entryY=0.5;entryDx=0;entryDy=0;exitX=0;exitY=0.5;exitDx=0;exitDy=0;strokeWidth=2;" parent="1" source="pp-BciHuPh1qQ60pS0a8-87" target="pp-BciHuPh1qQ60pS0a8-17" edge="1">
          <mxGeometry width="50" height="50" relative="1" as="geometry">
            <mxPoint x="-1802" y="-1153.5" as="sourcePoint" />
            <mxPoint x="-1752" y="-1203.5" as="targetPoint" />
          </mxGeometry>
        </mxCell>
        <mxCell id="pp-BciHuPh1qQ60pS0a8-91" value="" style="endArrow=classic;html=1;rounded=0;entryX=0.5;entryY=0;entryDx=0;entryDy=0;exitX=1;exitY=0.5;exitDx=0;exitDy=0;strokeWidth=2;" parent="1" source="pp-BciHuPh1qQ60pS0a8-17" target="pp-BciHuPh1qQ60pS0a8-36" edge="1">
          <mxGeometry width="50" height="50" relative="1" as="geometry">
            <mxPoint x="-1812" y="-1033.5" as="sourcePoint" />
            <mxPoint x="-1762" y="-1083.5" as="targetPoint" />
            <Array as="points">
              <mxPoint x="-1722" y="-1098.5" />
            </Array>
          </mxGeometry>
        </mxCell>
        <mxCell id="pp-BciHuPh1qQ60pS0a8-92" value="&lt;font style=&quot;font-size: 30px;&quot;&gt;worm_in_env.py&lt;/font&gt;" style="text;html=1;align=center;verticalAlign=middle;whiteSpace=wrap;rounded=0;strokeWidth=2;" parent="1" vertex="1">
          <mxGeometry x="-1745" y="-673.5" width="60" height="30" as="geometry" />
        </mxCell>
        <mxCell id="pp-BciHuPh1qQ60pS0a8-93" value="&lt;font style=&quot;font-size: 30px;&quot;&gt;映射权重矩阵、优化后的抽象网络信息&lt;/font&gt;" style="ellipse;whiteSpace=wrap;html=1;fillColor=#f8cecc;strokeColor=#b85450;strokeWidth=2;" parent="1" vertex="1">
          <mxGeometry x="-1742" y="-613.5" width="290" height="130" as="geometry" />
        </mxCell>
        <mxCell id="pp-BciHuPh1qQ60pS0a8-97" value="&lt;font style=&quot;font-size: 30px;&quot;&gt;在环境中&lt;font style=&quot;font-size: 30px;&quot;&gt;添加食物&lt;/font&gt;&lt;/font&gt;" style="rounded=0;whiteSpace=wrap;html=1;strokeWidth=2;" parent="1" vertex="1">
          <mxGeometry x="-1762" y="-431" width="320" height="110" as="geometry" />
        </mxCell>
        <mxCell id="pp-BciHuPh1qQ60pS0a8-98" value="&lt;font style=&quot;font-size: 30px;&quot;&gt;在环境中&lt;font style=&quot;font-size: 30px;&quot;&gt;添加线虫&lt;/font&gt;&lt;/font&gt;" style="rounded=0;whiteSpace=wrap;html=1;strokeWidth=2;" parent="1" vertex="1">
          <mxGeometry x="-1752" y="-253.5" width="320" height="110" as="geometry" />
        </mxCell>
        <mxCell id="pp-BciHuPh1qQ60pS0a8-99" value="" style="rounded=0;whiteSpace=wrap;html=1;fillColor=#dae8fc;strokeColor=#6c8ebf;strokeWidth=2;" parent="1" vertex="1">
          <mxGeometry x="-1332" y="-483.5" width="460" height="400" as="geometry" />
        </mxCell>
        <mxCell id="pp-BciHuPh1qQ60pS0a8-100" value="interact.cpp（身体、环境交互）" style="text;html=1;align=center;verticalAlign=middle;whiteSpace=wrap;rounded=0;fontSize=30;strokeWidth=2;" parent="1" vertex="1">
          <mxGeometry x="-1352" y="-543.5" width="250" height="30" as="geometry" />
        </mxCell>
        <mxCell id="pp-BciHuPh1qQ60pS0a8-102" value="&lt;font style=&quot;font-size: 30px;&quot;&gt;AddWorm：注册线虫肌肉数据和身体四面体数据，写入初始坐标、朝向、颜色等&lt;/font&gt;" style="rounded=0;whiteSpace=wrap;html=1;strokeWidth=2;" parent="1" vertex="1">
          <mxGeometry x="-1267" y="-273.5" width="340" height="160" as="geometry" />
        </mxCell>
        <mxCell id="pp-BciHuPh1qQ60pS0a8-103" value="&lt;font style=&quot;font-size: 30px;&quot;&gt;AddFood:回调到SimulationWindow模块，将食物坐标信息注册到SimulationWindow&lt;/font&gt;" style="rounded=0;whiteSpace=wrap;html=1;strokeWidth=2;" parent="1" vertex="1">
          <mxGeometry x="-1267" y="-453.5" width="330" height="157.5" as="geometry" />
        </mxCell>
        <mxCell id="pp-BciHuPh1qQ60pS0a8-104" value="" style="endArrow=classic;html=1;rounded=0;entryX=0;entryY=0.5;entryDx=0;entryDy=0;strokeWidth=2;" parent="1" target="pp-BciHuPh1qQ60pS0a8-103" edge="1">
          <mxGeometry width="50" height="50" relative="1" as="geometry">
            <mxPoint x="-1432" y="-373.5" as="sourcePoint" />
            <mxPoint x="-1382" y="-423.5" as="targetPoint" />
          </mxGeometry>
        </mxCell>
        <mxCell id="pp-BciHuPh1qQ60pS0a8-105" value="" style="endArrow=classic;html=1;rounded=0;entryX=0;entryY=0.5;entryDx=0;entryDy=0;strokeWidth=2;" parent="1" target="pp-BciHuPh1qQ60pS0a8-102" edge="1">
          <mxGeometry width="50" height="50" relative="1" as="geometry">
            <mxPoint x="-1432" y="-193.5" as="sourcePoint" />
            <mxPoint x="-1382" y="-243.5" as="targetPoint" />
          </mxGeometry>
        </mxCell>
        <mxCell id="pp-BciHuPh1qQ60pS0a8-107" value="&lt;font style=&quot;font-size: 30px;&quot;&gt;定义线虫神经网络&lt;/font&gt;" style="rounded=0;whiteSpace=wrap;html=1;strokeWidth=2;" parent="1" vertex="1">
          <mxGeometry x="-1752" y="-73.5" width="320" height="130" as="geometry" />
        </mxCell>
        <mxCell id="pp-BciHuPh1qQ60pS0a8-108" value="" style="endArrow=classic;html=1;rounded=0;entryX=0.5;entryY=0;entryDx=0;entryDy=0;strokeWidth=2;" parent="1" target="pp-BciHuPh1qQ60pS0a8-97" edge="1">
          <mxGeometry width="50" height="50" relative="1" as="geometry">
            <mxPoint x="-1602" y="-483.5" as="sourcePoint" />
            <mxPoint x="-1552" y="-533.5" as="targetPoint" />
          </mxGeometry>
        </mxCell>
        <mxCell id="pp-BciHuPh1qQ60pS0a8-109" value="" style="endArrow=classic;html=1;rounded=0;entryX=0.5;entryY=0;entryDx=0;entryDy=0;strokeWidth=2;" parent="1" target="pp-BciHuPh1qQ60pS0a8-98" edge="1">
          <mxGeometry width="50" height="50" relative="1" as="geometry">
            <mxPoint x="-1592" y="-313.5" as="sourcePoint" />
            <mxPoint x="-1562" y="-373.5" as="targetPoint" />
          </mxGeometry>
        </mxCell>
        <mxCell id="pp-BciHuPh1qQ60pS0a8-110" value="" style="endArrow=classic;html=1;rounded=0;entryX=0.5;entryY=0;entryDx=0;entryDy=0;exitX=0.5;exitY=1;exitDx=0;exitDy=0;strokeWidth=2;" parent="1" source="pp-BciHuPh1qQ60pS0a8-98" target="pp-BciHuPh1qQ60pS0a8-107" edge="1">
          <mxGeometry width="50" height="50" relative="1" as="geometry">
            <mxPoint x="-1602" y="-143.5" as="sourcePoint" />
            <mxPoint x="-1552" y="-193.5" as="targetPoint" />
          </mxGeometry>
        </mxCell>
        <mxCell id="pp-BciHuPh1qQ60pS0a8-116" value="FEM求解器" style="rounded=0;whiteSpace=wrap;html=1;fillColor=#f8cecc;strokeColor=#b85450;fontSize=30;strokeWidth=2;" parent="1" vertex="1">
          <mxGeometry x="-2292" y="-53.5" width="320" height="140" as="geometry" />
        </mxCell>
        <mxCell id="pp-BciHuPh1qQ60pS0a8-117" value="&lt;div style=&quot;font-size: 30px;&quot;&gt;&lt;font style=&quot;font-size: 30px;&quot;&gt;Environment.cpp&lt;/font&gt;&lt;/div&gt;:3D仿真模块" style="text;html=1;align=center;verticalAlign=middle;whiteSpace=wrap;rounded=0;fontSize=30;strokeWidth=2;" parent="1" vertex="1">
          <mxGeometry x="-2350.5" y="-153.5" width="215" height="110" as="geometry" />
        </mxCell>
        <mxCell id="pp-BciHuPh1qQ60pS0a8-119" value="" style="endArrow=classic;html=1;rounded=0;entryX=0.5;entryY=0;entryDx=0;entryDy=0;dashed=1;dashPattern=12 12;fillColor=#dae8fc;strokeColor=#6c8ebf;strokeWidth=2;" parent="1" target="pp-BciHuPh1qQ60pS0a8-93" edge="1">
          <mxGeometry width="50" height="50" relative="1" as="geometry">
            <mxPoint x="-1992" y="-893.5" as="sourcePoint" />
            <mxPoint x="-1942" y="-943.5" as="targetPoint" />
          </mxGeometry>
        </mxCell>
        <mxCell id="pp-BciHuPh1qQ60pS0a8-120" value="" style="endArrow=classic;html=1;rounded=0;entryX=0.5;entryY=0;entryDx=0;entryDy=0;fillColor=#dae8fc;strokeColor=#6c8ebf;dashed=1;dashPattern=12 12;strokeWidth=2;" parent="1" target="pp-BciHuPh1qQ60pS0a8-93" edge="1">
          <mxGeometry width="50" height="50" relative="1" as="geometry">
            <mxPoint x="-1892" y="-1433.5" as="sourcePoint" />
            <mxPoint x="-1842" y="-1483.5" as="targetPoint" />
            <Array as="points">
              <mxPoint x="-1572" y="-1433.5" />
            </Array>
          </mxGeometry>
        </mxCell>
        <mxCell id="pp-BciHuPh1qQ60pS0a8-121" value="" style="endArrow=classic;html=1;rounded=0;entryX=0.5;entryY=0;entryDx=0;entryDy=0;dashed=1;dashPattern=12 12;fillColor=#dae8fc;strokeColor=#6c8ebf;exitX=0.5;exitY=1;exitDx=0;exitDy=0;strokeWidth=2;" parent="1" source="pp-BciHuPh1qQ60pS0a8-36" edge="1">
          <mxGeometry width="50" height="50" relative="1" as="geometry">
            <mxPoint x="-1982" y="-883.5" as="sourcePoint" />
            <mxPoint x="-1587" y="-603.5" as="targetPoint" />
          </mxGeometry>
        </mxCell>
        <mxCell id="pp-BciHuPh1qQ60pS0a8-122" value="" style="endArrow=classic;html=1;rounded=0;entryX=0.5;entryY=1;entryDx=0;entryDy=0;strokeWidth=2;" parent="1" source="pp-BciHuPh1qQ60pS0a8-102" target="pp-BciHuPh1qQ60pS0a8-116" edge="1">
          <mxGeometry width="50" height="50" relative="1" as="geometry">
            <mxPoint x="-1102" y="136.5" as="sourcePoint" />
            <mxPoint x="-1052" y="-123.5" as="targetPoint" />
            <Array as="points">
              <mxPoint x="-1092" y="206.5" />
              <mxPoint x="-2132" y="216.5" />
            </Array>
          </mxGeometry>
        </mxCell>
        <mxCell id="pp-BciHuPh1qQ60pS0a8-123" value="" style="rounded=0;whiteSpace=wrap;html=1;fillColor=#d5e8d4;strokeColor=#82b366;strokeWidth=2;" parent="1" vertex="1">
          <mxGeometry x="-3538" y="399.5" width="2117" height="944" as="geometry" />
        </mxCell>
        <mxCell id="pp-BciHuPh1qQ60pS0a8-124" value="" style="endArrow=none;dashed=1;html=1;dashPattern=1 3;strokeWidth=2;rounded=0;exitX=0;exitY=0;exitDx=0;exitDy=0;" parent="1" source="pp-BciHuPh1qQ60pS0a8-123" edge="1">
          <mxGeometry width="50" height="50" relative="1" as="geometry">
            <mxPoint x="-2772" y="176.5" as="sourcePoint" />
            <mxPoint x="-2722" y="126.5" as="targetPoint" />
          </mxGeometry>
        </mxCell>
        <mxCell id="pp-BciHuPh1qQ60pS0a8-125" value="" style="endArrow=none;dashed=1;html=1;dashPattern=1 3;strokeWidth=2;rounded=0;exitX=1;exitY=0;exitDx=0;exitDy=0;" parent="1" source="pp-BciHuPh1qQ60pS0a8-123" edge="1">
          <mxGeometry width="50" height="50" relative="1" as="geometry">
            <mxPoint x="-2542" y="176.5" as="sourcePoint" />
            <mxPoint x="-2492" y="126.5" as="targetPoint" />
          </mxGeometry>
        </mxCell>
        <mxCell id="pp-BciHuPh1qQ60pS0a8-129" value="模拟仿真模块——主循环" style="text;html=1;align=center;verticalAlign=middle;whiteSpace=wrap;rounded=0;fontSize=30;strokeWidth=2;fontStyle=1;fontColor=#FF3333;" parent="1" vertex="1">
          <mxGeometry x="-3504" y="462.5" width="478" height="40" as="geometry" />
        </mxCell>
        <mxCell id="pp-BciHuPh1qQ60pS0a8-133" value="&lt;font style=&quot;font-size: 30px;&quot;&gt;调用线虫神经网络模块&lt;/font&gt;" style="rounded=0;whiteSpace=wrap;html=1;fillColor=#dae8fc;strokeColor=#6c8ebf;strokeWidth=2;" parent="1" vertex="1">
          <mxGeometry x="-3432" y="616.5" width="450" height="210" as="geometry" />
        </mxCell>
        <mxCell id="pp-BciHuPh1qQ60pS0a8-135" value="&lt;font style=&quot;font-size: 30px;&quot;&gt;SimulationWindow内的&lt;font style=&quot;font-size: 30px;&quot;&gt;timer&lt;/font&gt;&lt;/font&gt;" style="text;html=1;align=center;verticalAlign=middle;whiteSpace=wrap;rounded=0;strokeWidth=2;" parent="1" vertex="1">
          <mxGeometry x="-3397" y="626.5" width="380" height="110" as="geometry" />
        </mxCell>
        <mxCell id="pp-BciHuPh1qQ60pS0a8-140" value="" style="endArrow=classic;html=1;rounded=0;entryX=0;entryY=0.5;entryDx=0;entryDy=0;strokeWidth=2;" parent="1" edge="1">
          <mxGeometry width="50" height="50" relative="1" as="geometry">
            <mxPoint x="-2982" y="736.5" as="sourcePoint" />
            <mxPoint x="-2810.75" y="736.5" as="targetPoint" />
          </mxGeometry>
        </mxCell>
        <mxCell id="pp-BciHuPh1qQ60pS0a8-142" value="&lt;font style=&quot;font-size: 30px;&quot;&gt;头部位置信息&lt;/font&gt;" style="ellipse;whiteSpace=wrap;html=1;strokeWidth=2;" parent="1" vertex="1">
          <mxGeometry x="-2745.75" y="456.5" width="330" height="128" as="geometry" />
        </mxCell>
        <mxCell id="g8PtUYDPGgG1RVu-_WWF-1" value="" style="endArrow=classic;html=1;rounded=0;entryX=0.5;entryY=0;entryDx=0;entryDy=0;exitX=0.5;exitY=1;exitDx=0;exitDy=0;strokeWidth=2;" parent="1" source="pp-BciHuPh1qQ60pS0a8-142" target="g8PtUYDPGgG1RVu-_WWF-2" edge="1">
          <mxGeometry width="50" height="50" relative="1" as="geometry">
            <mxPoint x="-2502" y="606.5" as="sourcePoint" />
            <mxPoint x="-2452" y="556.5" as="targetPoint" />
          </mxGeometry>
        </mxCell>
        <mxCell id="g8PtUYDPGgG1RVu-_WWF-2" value="&lt;div&gt;&lt;font style=&quot;font-size: 30px;&quot;&gt;线虫神经网络模块&lt;/font&gt;&lt;/div&gt;&lt;div&gt;&lt;font style=&quot;font-size: 30px;&quot;&gt;进行一帧时间内的更新，计算运动神经元信号&lt;br&gt;&lt;/font&gt;&lt;/div&gt;" style="rounded=0;whiteSpace=wrap;html=1;fillColor=#dae8fc;strokeColor=#6c8ebf;strokeWidth=2;" parent="1" vertex="1">
          <mxGeometry x="-2805.75" y="626.5" width="450" height="210" as="geometry" />
        </mxCell>
        <mxCell id="g8PtUYDPGgG1RVu-_WWF-4" value="&lt;div&gt;&lt;font style=&quot;font-size: 30px;&quot;&gt;线虫神经网络模块&lt;/font&gt;&lt;/div&gt;&lt;div&gt;&lt;font style=&quot;font-size: 30px;&quot;&gt;计算肌肉激活信号&lt;br&gt;&lt;/font&gt;&lt;/div&gt;" style="rounded=0;whiteSpace=wrap;html=1;fillColor=#dae8fc;strokeColor=#6c8ebf;strokeWidth=2;" parent="1" vertex="1">
          <mxGeometry x="-1962" y="626.5" width="450" height="200" as="geometry" />
        </mxCell>
        <mxCell id="g8PtUYDPGgG1RVu-_WWF-5" value="&lt;font style=&quot;font-size: 30px;&quot;&gt;运动神经元信号&lt;/font&gt;" style="ellipse;whiteSpace=wrap;html=1;strokeWidth=2;" parent="1" vertex="1">
          <mxGeometry x="-2292" y="659" width="260" height="125" as="geometry" />
        </mxCell>
        <mxCell id="g8PtUYDPGgG1RVu-_WWF-6" value="" style="endArrow=classic;html=1;rounded=0;entryX=0;entryY=0.5;entryDx=0;entryDy=0;strokeWidth=2;" parent="1" target="g8PtUYDPGgG1RVu-_WWF-5" edge="1">
          <mxGeometry width="50" height="50" relative="1" as="geometry">
            <mxPoint x="-2362" y="721.5" as="sourcePoint" />
            <mxPoint x="-2302" y="686.5" as="targetPoint" />
          </mxGeometry>
        </mxCell>
        <mxCell id="g8PtUYDPGgG1RVu-_WWF-7" value="" style="endArrow=classic;html=1;rounded=0;entryX=0;entryY=0.5;entryDx=0;entryDy=0;strokeWidth=2;" parent="1" target="g8PtUYDPGgG1RVu-_WWF-4" edge="1">
          <mxGeometry width="50" height="50" relative="1" as="geometry">
            <mxPoint x="-2032" y="726.5" as="sourcePoint" />
            <mxPoint x="-1982" y="676.5" as="targetPoint" />
          </mxGeometry>
        </mxCell>
        <mxCell id="g8PtUYDPGgG1RVu-_WWF-8" value="&lt;div&gt;Interact模块&lt;/div&gt;&lt;div&gt;&lt;br&gt;&lt;/div&gt;肌肉信号加载到FEM求解器中，神经元信号加载到渲染器中" style="rounded=0;whiteSpace=wrap;html=1;fillColor=#dae8fc;strokeColor=#6c8ebf;fontSize=30;strokeWidth=2;" parent="1" vertex="1">
          <mxGeometry x="-1957" y="1106.5" width="450" height="200" as="geometry" />
        </mxCell>
        <mxCell id="g8PtUYDPGgG1RVu-_WWF-9" value="肌肉激活信号和运动神经元信号" style="ellipse;whiteSpace=wrap;html=1;fontSize=30;strokeWidth=2;" parent="1" vertex="1">
          <mxGeometry x="-1867" y="906.5" width="270" height="120" as="geometry" />
        </mxCell>
        <mxCell id="g8PtUYDPGgG1RVu-_WWF-10" value="" style="endArrow=classic;html=1;rounded=0;strokeWidth=2;" parent="1" target="g8PtUYDPGgG1RVu-_WWF-9" edge="1">
          <mxGeometry width="50" height="50" relative="1" as="geometry">
            <mxPoint x="-1732" y="826.5" as="sourcePoint" />
            <mxPoint x="-1682" y="776.5" as="targetPoint" />
          </mxGeometry>
        </mxCell>
        <mxCell id="g8PtUYDPGgG1RVu-_WWF-11" value="" style="endArrow=classic;html=1;rounded=0;entryX=0.5;entryY=0;entryDx=0;entryDy=0;exitX=0.5;exitY=1;exitDx=0;exitDy=0;strokeWidth=2;" parent="1" source="g8PtUYDPGgG1RVu-_WWF-9" target="g8PtUYDPGgG1RVu-_WWF-8" edge="1">
          <mxGeometry width="50" height="50" relative="1" as="geometry">
            <mxPoint x="-1742" y="1036.5" as="sourcePoint" />
            <mxPoint x="-1692" y="986.5" as="targetPoint" />
          </mxGeometry>
        </mxCell>
        <mxCell id="HWyIAQKNPVB7SPaXi-zc-2" value="&lt;div&gt;Environment模块&lt;/div&gt;&lt;div&gt;调用FEM求解器，更新各个点的位置、速度&lt;br&gt;&lt;/div&gt;" style="rounded=0;whiteSpace=wrap;html=1;fillColor=#dae8fc;strokeColor=#6c8ebf;fontSize=30;strokeWidth=2;" parent="1" vertex="1">
          <mxGeometry x="-2649" y="1106.5" width="450" height="200" as="geometry" />
        </mxCell>
        <mxCell id="HWyIAQKNPVB7SPaXi-zc-3" value="" style="endArrow=classic;html=1;rounded=0;exitX=0;exitY=0.5;exitDx=0;exitDy=0;strokeWidth=2;" parent="1" source="g8PtUYDPGgG1RVu-_WWF-8" target="HWyIAQKNPVB7SPaXi-zc-2" edge="1">
          <mxGeometry width="50" height="50" relative="1" as="geometry">
            <mxPoint x="-1962" y="1216.5" as="sourcePoint" />
            <mxPoint x="-1912" y="1166.5" as="targetPoint" />
          </mxGeometry>
        </mxCell>
        <mxCell id="HWyIAQKNPVB7SPaXi-zc-4" value="渲染，更新帧缓冲区" style="rounded=0;whiteSpace=wrap;html=1;fillColor=#dae8fc;strokeColor=#6c8ebf;fontSize=30;strokeWidth=2;" parent="1" vertex="1">
          <mxGeometry x="-3392" y="1106.5" width="370" height="200" as="geometry" />
        </mxCell>
        <mxCell id="HWyIAQKNPVB7SPaXi-zc-5" value="" style="endArrow=classic;html=1;rounded=0;entryX=1;entryY=0.5;entryDx=0;entryDy=0;exitX=0;exitY=0.5;exitDx=0;exitDy=0;strokeWidth=2;" parent="1" source="HWyIAQKNPVB7SPaXi-zc-2" target="HWyIAQKNPVB7SPaXi-zc-4" edge="1">
          <mxGeometry width="50" height="50" relative="1" as="geometry">
            <mxPoint x="-2582" y="1216.5" as="sourcePoint" />
            <mxPoint x="-2532" y="1166.5" as="targetPoint" />
          </mxGeometry>
        </mxCell>
        <mxCell id="HWyIAQKNPVB7SPaXi-zc-6" value="" style="endArrow=classic;html=1;rounded=0;entryX=0.5;entryY=1;entryDx=0;entryDy=0;exitX=0.5;exitY=0;exitDx=0;exitDy=0;strokeWidth=2;" parent="1" source="HWyIAQKNPVB7SPaXi-zc-4" target="pp-BciHuPh1qQ60pS0a8-133" edge="1">
          <mxGeometry width="50" height="50" relative="1" as="geometry">
            <mxPoint x="-3112" y="1106.5" as="sourcePoint" />
            <mxPoint x="-3062" y="1056.5" as="targetPoint" />
          </mxGeometry>
        </mxCell>
      </root>
    </mxGraphModel>
  </diagram>
</mxfile>
